<?xml version="1.0" encoding="UTF-8" standalone="no"?>
<svg width="402px" height="252px" viewBox="0 0 402 252" version="1.1" xmlns="http://www.w3.org/2000/svg" xmlns:xlink="http://www.w3.org/1999/xlink" xmlns:sketch="http://www.bohemiancoding.com/sketch/ns">
    <!-- Generator: Sketch 3.2.2 (9983) - http://www.bohemiancoding.com/sketch -->
    <title>Group</title>
    <desc>Created with Sketch.</desc>
    <defs></defs>
    <g id="Page-1" stroke="none" stroke-width="1" fill="none" fill-rule="evenodd" sketch:type="MSPage">
        <g id="Group" sketch:type="MSLayerGroup" fill="#312C2C">
            <g id="Rectangle-7-+-Rectangle-8-+-Rectangle-8" transform="translate(235.450996, 109.267241)" sketch:type="MSShapeGroup">
                <path d="M0.169917053,2.23099017 L0.169917053,36.115971 C0.169917053,37.3262506 1.1547167,38.3073761 2.36485761,38.3073761 L61.0743821,38.3073761 C62.2866143,38.3073761 63.2693227,37.3278152 63.2693227,36.115971 L63.2693227,2.23099017 C63.2693227,1.02071055 62.2845231,0.039585068 61.0743821,0.039585068 L2.36485761,0.039585068 C1.15262542,0.039585068 0.169917053,1.01914595 0.169917053,2.23099017 Z M61.0743821,2.23128583 C61.0726101,2.23128583 61.0733608,36.115971 61.0733608,36.115971 C61.0733608,36.116752 2.36485761,36.1156754 2.36485761,36.1156754 C2.36662969,36.1156754 2.36587897,2.23099017 2.36587897,2.23099017 C2.36587897,2.2302092 61.0743821,2.23128583 61.0743821,2.23128583 Z" id="Rectangle-7"></path>
                <rect id="Rectangle-10" x="19.4575912" y="39.7327586" width="23.2714681" height="4.5"></rect>
                <rect id="Rectangle-11" x="22.4603613" y="38.2327586" width="17.265928" height="2.25"></rect>
            </g>
            <g id="Oval-3-+-Rectangle-4" transform="translate(339.234263, 162.801724)" sketch:type="MSShapeGroup">
                <ellipse id="Oval-3" cx="17.2943701" cy="46.3392636" rx="1.37172621" ry="1.36981297"></ellipse>
                <path d="M0.0106198158,2.23210238 L0.0106198158,49.3520356 C0.0106198158,50.5629295 0.994061565,51.5445529 2.20577353,51.5445529 L32.3829666,51.5445529 C33.5953165,51.5445529 34.5781203,50.561664 34.5781203,49.3520356 L34.5781203,2.23210238 C34.5781203,1.02120851 33.5946786,0.039585068 32.3829666,0.039585068 L2.20577353,0.039585068 C0.993423611,0.039585068 0.0106198158,1.02247398 0.0106198158,2.23210238 Z M32.3829666,2.23128583 C32.3818371,2.23128583 32.3821584,49.3520356 32.3821584,49.3520356 C32.3821584,49.3522167 2.20577353,49.3528522 2.20577353,49.3528522 C2.20690299,49.3528522 2.20658173,2.23210238 2.20658173,2.23210238 C2.20658173,2.23192125 32.3829666,2.23128583 32.3829666,2.23128583 Z" id="Rectangle-4"></path>
            </g>
            <g id="Oval-3-+-Rectangle-4" transform="translate(64.876494, 103.017241)" sketch:type="MSShapeGroup">
                <ellipse id="Oval-3" cx="9.87642871" cy="25.5912797" rx="1.0886716" ry="1.09293588"></ellipse>
                <path d="M0,2.35018349 L0,27.5507283 C0,28.7622796 0.982923765,29.744436 2.1941253,29.744436 L17.5587321,29.744436 C18.7705141,29.744436 19.7528574,28.7642095 19.7528574,27.5507283 L19.7528574,2.35018349 C19.7528574,1.13863217 18.7699337,0.156475775 17.5587321,0.156475775 L2.1941253,0.156475775 C0.982343359,0.156475775 0,1.13670229 0,2.35018349 Z M17.5587321,2.34817654 C17.5565657,2.34817654 17.5568955,27.5507283 17.5568955,27.5507283 C17.5568955,27.5536611 2.1941253,27.5527353 2.1941253,27.5527353 C2.19629169,27.5527353 2.19596192,2.35018349 2.19596192,2.35018349 C2.19596192,2.34725073 17.5587321,2.34817654 17.5587321,2.34817654 Z" id="Rectangle-4"></path>
            </g>
            <g id="Oval-1-+-Rectangle-2" transform="translate(89.426295, 229.396552)" sketch:type="MSShapeGroup">
                <ellipse id="Oval-1" cx="6.67945164" cy="17.9622538" rx="1.21931219" ry="1.21761153"></ellipse>
                <path d="M0,2.34819052 L0,19.8817686 C0,21.0922193 0.984397687,22.0734834 2.19670893,22.0734834 L10.9718627,22.0734834 C12.1850715,22.0734834 13.1685716,21.0927558 13.1685716,19.8817686 L13.1685716,2.34819052 C13.1685716,1.13773989 12.1841739,0.156475775 10.9718627,0.156475775 L2.19670893,0.156475775 C0.983500089,0.156475775 0,1.13720332 0,2.34819052 Z M10.9718627,2.34817654 C10.9719903,2.34817654 10.9726097,19.8817686 10.9726097,19.8817686 C10.9726097,19.8818808 2.19670893,19.8817826 2.19670893,19.8817826 C2.19658128,19.8817826 2.19596192,2.34819052 2.19596192,2.34819052 C2.19596192,2.34807833 10.9718627,2.34817654 10.9718627,2.34817654 Z" id="Rectangle-2"></path>
            </g>
            <g id="Oval-1-+-Rectangle-2" transform="translate(291.080478, 40.818966)" sketch:type="MSShapeGroup">
                <ellipse id="Oval-1" cx="6.67945164" cy="17.9622538" rx="1.21931219" ry="1.21761153"></ellipse>
                <path d="M0,2.34819052 L0,19.8817686 C0,21.0922193 0.984397687,22.0734834 2.19670893,22.0734834 L10.9718627,22.0734834 C12.1850715,22.0734834 13.1685716,21.0927558 13.1685716,19.8817686 L13.1685716,2.34819052 C13.1685716,1.13773989 12.1841739,0.156475775 10.9718627,0.156475775 L2.19670893,0.156475775 C0.983500089,0.156475775 0,1.13720332 0,2.34819052 Z M10.9718627,2.34817654 C10.9719903,2.34817654 10.9726097,19.8817686 10.9726097,19.8817686 C10.9726097,19.8818808 2.19670893,19.8817826 2.19670893,19.8817826 C2.19658128,19.8817826 2.19596192,2.34819052 2.19596192,2.34819052 C2.19596192,2.34807833 10.9718627,2.34817654 10.9718627,2.34817654 Z" id="Rectangle-2"></path>
            </g>
            <g id="Oval-3-+-Rectangle-4" transform="translate(96.552191, 39.181034)" sketch:type="MSShapeGroup">
                <path d="M3.10276959,13.7961602 C3.10276959,14.3965783 3.59304501,14.8833133 4.19783039,14.8833133 C4.80261577,14.8833133 5.29289118,14.3965783 5.29289118,13.7961602 C5.29289118,13.1957421 4.80261577,12.709007 4.19783039,12.709007 C3.59304501,12.709007 3.10276959,13.1957421 3.10276959,13.7961602 L3.10276959,13.7961602 Z" id="Oval-3"></path>
                <path d="M39.015366,0.0980304216 L2.23211862,0.0980304216 C1.01956682,0.0980304216 0.0365993653,1.08115521 0.0365993653,2.28791048 L0.0365993653,25.3044099 C0.0365993653,26.5138472 1.01881961,27.4942899 2.23211862,27.4942899 L39.015366,27.4942899 C40.2279178,27.4942899 41.2108853,26.5111651 41.2108853,25.3044099 L41.2108853,2.28791048 C41.2108853,1.07847312 40.228665,0.0980304216 39.015366,0.0980304216 Z M39.0149234,25.3044099 C39.0149234,25.3017546 2.23211862,25.3025892 2.23211862,25.3025892 C2.23168013,25.3025892 2.23256128,2.28791048 2.23256128,2.28791048 C2.23256128,2.29056575 39.015366,2.28973118 39.015366,2.28973118 C39.0158045,2.28973118 39.0149234,25.3044099 39.0149234,25.3044099 Z" id="Rectangle-4"></path>
            </g>
            <g id="Oval-1-+-Rectangle-2" transform="translate(146.284462, 108.189655)" sketch:type="MSShapeGroup">
                <ellipse id="Oval-1" cx="8.61798054" cy="23.608426" rx="1.03715884" ry="1.00721542"></ellipse>
                <path d="M0.113278035,2.22946513 L0.113278035,25.2459645 C0.113278035,26.4554019 1.0950746,27.4358446 2.31082408,27.4358446 L14.925137,27.4358446 C16.1388082,27.4358446 17.122683,26.4527198 17.122683,25.2459645 L17.122683,2.22946513 C17.122683,1.02002777 16.1408865,0.039585068 14.925137,0.039585068 L2.31082408,0.039585068 C1.09715291,0.039585068 0.113278035,1.02270985 0.113278035,2.22946513 Z M14.925137,2.23128583 C14.927814,2.23128583 14.9267211,25.2459645 14.9267211,25.2459645 C14.9267211,25.2428564 2.31082408,25.2441438 2.31082408,25.2441438 C2.30814709,25.2441438 2.30923995,2.22946513 2.30923995,2.22946513 C2.30923995,2.23257323 14.925137,2.23128583 14.925137,2.23128583 Z" id="Rectangle-2"></path>
            </g>
            <g id="Rectangle-14-+-Rectangle-15" transform="translate(130.737052, 178.620690)" sketch:type="MSShapeGroup">
                <path d="M0.141597544,2.23523092 L0.141597544,27.5791009 C0.141597544,28.7897053 1.12494537,29.771094 2.33642981,29.771094 L45.6828374,29.771094 C46.8950098,29.771094 47.8776696,28.7904623 47.8776696,27.5791009 L47.8776696,2.23523092 C47.8776696,1.0246266 46.8943218,0.0432379026 45.6828374,0.0432379026 L2.33642981,0.0432379026 C1.12425742,0.0432379026 0.141597544,1.02386955 0.141597544,2.23523092 Z M45.6828374,2.23493866 C45.681551,2.23493866 45.6817077,27.5791009 45.6817077,27.5791009 C45.6817077,27.5799587 2.33642981,27.5793932 2.33642981,27.5793932 C2.33771617,27.5793932 2.33755946,2.23523092 2.33755946,2.23523092 C2.33755946,2.23437315 45.6828374,2.23493866 45.6828374,2.23493866 Z" id="Rectangle-14"></path>
                <path d="M0.141597544,31.3449216 C0.141597544,32.2141226 0.848765358,32.9187493 1.71965966,32.9187493 L46.2996075,32.9187493 C47.1711472,32.9187493 47.8776696,32.212354 47.8776696,31.3449216 C47.8776696,30.4757206 47.1705018,29.771094 46.2996075,29.771094 L1.71965966,29.771094 C0.848120018,29.771094 0.141597544,30.4774893 0.141597544,31.3449216 Z M46.2996075,31.9627947 C45.958433,31.9627947 45.6817077,31.6868899 45.6817077,31.3449216 C45.6817077,31.0025373 45.9577235,30.7270485 46.2996075,30.7270485 L1.71965966,30.7270485 C2.06083417,30.7270485 2.33755946,31.0029533 2.33755946,31.3449216 C2.33755946,31.6873059 2.06154372,31.9627947 1.71965966,31.9627947 L46.2996075,31.9627947 Z" id="Rectangle-15"></path>
            </g>
            <g id="Oval-3-+-Rectangle-4" transform="translate(194.114343, 0.000000)" sketch:type="MSShapeGroup">
                <path d="M2.92678116,8.78812393 C2.92678116,9.32182892 3.36258153,9.75448229 3.90016853,9.75448229 C4.43775553,9.75448229 4.8735559,9.32182892 4.8735559,8.78812393 C4.8735559,8.25441895 4.43775553,7.82176557 3.90016853,7.82176557 C3.36258153,7.82176557 2.92678116,8.25441895 2.92678116,8.78812393 L2.92678116,8.78812393 Z" id="Oval-3"></path>
                <path d="M24.3570846,0.021320895 L2.3970514,0.021320895 C1.18436946,0.021320895 0.201296509,1.00157413 0.201296509,2.21093183 L0.201296509,15.365316 C0.201296509,16.5746048 1.18621422,17.554927 2.3970514,17.554927 L24.3570846,17.554927 C25.5697665,17.554927 26.5528395,16.5746737 26.5528395,15.365316 L26.5528395,2.21093183 C26.5528395,1.0016431 25.5679218,0.021320895 24.3570846,0.021320895 Z M24.3568776,15.365316 C24.3568776,15.3637743 2.3970514,15.3632262 2.3970514,15.3632262 C2.39766613,15.3632262 2.39725842,2.21093183 2.39725842,2.21093183 C2.39725842,2.21247354 24.3570846,2.21302165 24.3570846,2.21302165 C24.3564699,2.21302165 24.3568776,15.365316 24.3568776,15.365316 Z" id="Rectangle-4"></path>
            </g>
            <g id="Oval-3-+-Rectangle-4" transform="translate(0.000000, 200.000000)" sketch:type="MSShapeGroup">
                <path d="M2.83528274,8.94519582 C2.83528274,9.47890081 3.27108311,9.91155418 3.80867012,9.91155418 C4.34625712,9.91155418 4.78205749,9.47890081 4.78205749,8.94519582 C4.78205749,8.41149084 4.34625712,7.97883746 3.80867012,7.97883746 C3.27108311,7.97883746 2.83528274,8.41149084 2.83528274,8.94519582 L2.83528274,8.94519582 Z" id="Oval-3"></path>
                <path d="M24.2655862,0.178392783 L2.30555299,0.178392783 C1.09287105,0.178392783 0.109798096,1.15864602 0.109798096,2.36800372 L0.109798096,15.5223879 C0.109798096,16.7316767 1.09471581,17.7119989 2.30555299,17.7119989 L24.2655862,17.7119989 C25.4782681,17.7119989 26.4613411,16.7317456 26.4613411,15.5223879 L26.4613411,2.36800372 C26.4613411,1.15871499 25.4764234,0.178392783 24.2655862,0.178392783 Z M24.2653792,15.5223879 C24.2653792,15.5208462 2.30555299,15.5202981 2.30555299,15.5202981 C2.30616772,15.5202981 2.30576001,2.36800372 2.30576001,2.36800372 C2.30576001,2.36954542 24.2655862,2.37009354 24.2655862,2.37009354 C24.2649715,2.37009354 24.2653792,15.5223879 24.2653792,15.5223879 Z" id="Rectangle-4"></path>
            </g>
            <g id="Oval-1-+-Rectangle-2" transform="translate(372.823108, 45.301724)" sketch:type="MSShapeGroup">
                <path d="M25.8796265,9.28767134 C25.8796265,8.68244989 25.3880436,8.19182096 24.7816455,8.19182096 C24.1752474,8.19182096 23.6836645,8.68244989 23.6836645,9.28767134 C23.6836645,9.89289279 24.1752474,10.3835217 24.7816455,10.3835217 C25.3880436,10.3835217 25.8796265,9.89289279 25.8796265,9.28767134 L25.8796265,9.28767134 Z" id="Oval-1"></path>
                <path d="M2.21054866,17.6535535 L26.9152262,17.6535535 C28.1279932,17.6535535 29.1111351,16.6733003 29.1111351,15.4639426 L29.1111351,2.30955837 C29.1111351,1.10026964 28.1263701,0.119947429 26.9152262,0.119947429 L2.21054866,0.119947429 C0.997781653,0.119947429 0.0146397461,1.10020067 0.0146397461,2.30955837 L0.0146397461,15.4639426 C0.0146397461,16.6732313 0.999404724,17.6535535 2.21054866,17.6535535 Z M2.21060166,2.30955837 C2.21060166,2.31113452 26.9152262,2.31164819 26.9152262,2.31164819 C26.9148419,2.31164819 26.9151732,15.4639426 26.9151732,15.4639426 C26.9151732,15.4623664 2.21054866,15.4618527 2.21054866,15.4618527 C2.210933,15.4618527 2.21060166,2.30955837 2.21060166,2.30955837 Z" id="Rectangle-2"></path>
            </g>
            <g id="Oval-1-+-Rectangle-2" transform="translate(270.082869, 212.198276)" sketch:type="MSShapeGroup">
                <ellipse id="Oval-1" cx="8.71001894" cy="23.783762" rx="1.03715884" ry="1.00721542"></ellipse>
                <path d="M0.205316439,2.40480119 L0.205316439,25.4213006 C0.205316439,26.6307379 1.187113,27.6111806 2.40286248,27.6111806 L15.0171754,27.6111806 C16.2308466,27.6111806 17.2147214,26.6280558 17.2147214,25.4213006 L17.2147214,2.40480119 C17.2147214,1.19536383 16.2329249,0.214921129 15.0171754,0.214921129 L2.40286248,0.214921129 C1.18919132,0.214921129 0.205316439,1.19804591 0.205316439,2.40480119 Z M15.0171754,2.40662189 C15.0198524,2.40662189 15.0187595,25.4213006 15.0187595,25.4213006 C15.0187595,25.4181925 2.40286248,25.4194799 2.40286248,25.4194799 C2.4001855,25.4194799 2.40127835,2.40480119 2.40127835,2.40480119 C2.40127835,2.40790929 15.0171754,2.40662189 15.0171754,2.40662189 Z" id="Rectangle-2"></path>
            </g>
            <g id="Rectangle-10-+-Rectangle-10-+-Rectangle-12" transform="translate(95.971315, 157.801724)" sketch:type="MSShapeGroup">
                <path d="M1.80152876,23.987594 C1.80152876,25.3503971 2.90832854,26.4568849 4.27093593,26.4568849 C5.63515078,26.4568849 6.7403431,25.3512773 6.7403431,23.987594 L6.7403431,16.8718216 L5.64236214,16.8718216 L5.64236214,23.987594 C5.64236214,24.7466238 5.02818217,25.3610345 4.27093593,25.3610345 C3.51513517,25.3610345 2.89950971,24.7455826 2.89950971,23.987594 L2.89950971,16.8718216 L1.80152876,16.8718216 L1.80152876,23.987594 Z" id="Rectangle-10"></path>
                <path d="M6.75624283,2.62576666 C6.75624283,1.26289665 5.6489049,0.156475775 4.28578567,0.156475775 C2.9210582,0.156475775 1.81532852,1.26201645 1.81532852,2.62576666 L1.81532852,9.74153907 L2.91330947,9.74153907 L2.91330947,2.62576666 C2.91330947,1.86680378 3.52789215,1.25232616 4.28578567,1.25232616 C5.04223282,1.25232616 5.65826187,1.86784503 5.65826187,2.62576666 L5.65826187,9.74153907 L6.75624283,9.74153907 L6.75624283,2.62576666 Z" id="Rectangle-10"></path>
                <path d="M0.155757299,11.6629159 L0.155757299,15.49837 C0.155757299,16.708819 1.14035567,17.6900819 2.35053034,17.6900819 L6.19134152,17.6900819 C7.4034812,17.6900819 8.38611456,16.7068568 8.38611456,15.49837 L8.38611456,11.6629159 C8.38611456,10.4524668 7.40151619,9.471204 6.19134152,9.471204 L2.35053034,9.471204 C1.13839066,9.471204 0.155757299,10.4544291 0.155757299,11.6629159 Z M6.19134152,11.6629048 C6.18943379,11.6629048 6.19015264,15.49837 6.19015264,15.49837 C6.19015264,15.4976627 2.35053034,15.4983811 2.35053034,15.4983811 C2.35243807,15.4983811 2.35171921,11.6629159 2.35171921,11.6629159 C2.35171921,11.6636232 6.19134152,11.6629048 6.19134152,11.6629048 Z" id="Rectangle-12"></path>
            </g>
            <g transform="translate(13.280080, 88.362069)" sketch:type="MSShapeGroup">
                <path d="M1.24160532,0.156475775 C0.637997909,0.156475775 0.148677421,0.642324522 0.148677421,1.25128584 L0.148677421,3.44506723 C0.148677421,4.04971413 0.638876036,4.53987729 1.24160532,4.53987729 L7.28610678,4.53987729 C7.88971419,4.53987729 8.37903468,4.05402855 8.37903468,3.44506723 L8.37903468,1.25128584 C8.37903468,0.646638937 7.88883607,0.156475775 7.28610678,0.156475775 L1.24160532,0.156475775 Z M6.73296323,3.9919521 C7.33903,3.9919521 7.8303442,3.50132318 7.8303442,2.89610172 C7.8303442,2.29088027 7.33903,1.80025135 6.73296323,1.80025135 C6.12689646,1.80025135 5.63558226,2.29088027 5.63558226,2.89610172 C5.63558226,3.50132318 6.12689646,3.9919521 6.73296323,3.9919521 Z" id="Rectangle-13"></path>
                <path d="M13.317249,2.34818763 L13.317249,6.18364177 C13.317249,7.3940908 14.300759,8.37535362 15.5115885,8.37535362 L22.0967193,8.37535362 C23.3086195,8.37535362 24.2910587,7.39212854 24.2910587,6.18364177 L24.2910587,2.34818763 C24.2910587,1.13773859 23.3075488,0.156475775 22.0967193,0.156475775 L15.5115885,0.156475775 C14.2996883,0.156475775 13.317249,1.13970086 13.317249,2.34818763 Z M22.0967193,1.44957922 C22.5922506,1.44957922 22.9954412,1.85215129 22.9954412,2.34818763 L22.9954412,6.18364177 C22.9954412,6.67903902 22.5919961,7.08225018 22.0967193,7.08225018 L15.5115885,7.08225018 C15.0160571,7.08225018 14.6128666,6.67967811 14.6128666,6.18364177 L14.6128666,2.34818763 C14.6128666,1.85279038 15.0163116,1.44957922 15.5115885,1.44957922 L22.0967193,1.44957922 Z" id="Rectangle-11"></path>
                <path d="M0.148677421,2.34818763 L0.148677421,6.18364177 C0.148677421,7.3940908 1.13218736,8.37535362 2.34301685,8.37535362 L8.92814767,8.37535362 C10.1400479,8.37535362 11.1224871,7.39212854 11.1224871,6.18364177 L11.1224871,2.34818763 C11.1224871,1.13773859 10.1389772,0.156475775 8.92814767,0.156475775 L2.34301685,0.156475775 C1.13111665,0.156475775 0.148677421,1.13970086 0.148677421,2.34818763 Z M8.92814767,1.44957922 C9.42367902,1.44957922 9.82686957,1.85215129 9.82686957,2.34818763 L9.82686957,6.18364177 C9.82686957,6.67903902 9.42342452,7.08225018 8.92814767,7.08225018 L2.34301685,7.08225018 C1.8474855,7.08225018 1.44429495,6.67967811 1.44429495,6.18364177 L1.44429495,2.34818763 C1.44429495,1.85279038 1.84774,1.44957922 2.34301685,1.44957922 L8.92814767,1.44957922 Z" id="Rectangle-11"></path>
                <path d="M2.34343936,0.156475775 L1.79444888,0.156475775 L1.79444888,1.25232616 L2.34343936,1.25232616 L21.5476063,1.25232616 L22.0965968,1.25232616 L22.0965968,0.156475775 L21.5476063,0.156475775 L2.34343936,0.156475775 Z" id="Line"></path>
            </g>
            <g id="Rectangle-10-+-Rectangle-10-+-Rectangle-12" transform="translate(178.890837, 58.362069)" sketch:type="MSShapeGroup">
                <path d="M2.5802299,1.72354182 C1.21471016,1.72354182 0.106138159,2.82873101 0.106138159,4.18920517 C0.106138159,5.55128446 1.21382825,6.65486853 2.5802299,6.65486853 L9.70983695,6.65486853 L9.70983695,5.55901815 L2.5802299,5.55901815 C1.81979142,5.55901815 1.20411912,4.94562804 1.20411912,4.18920517 C1.20411912,3.43422587 1.8208347,2.8193922 2.5802299,2.8193922 L9.70983695,2.8193922 L9.70983695,1.72354182 L2.5802299,1.72354182 Z" id="Rectangle-10"></path>
                <path d="M23.9835894,6.65486853 C25.3491091,6.65486853 26.4576811,5.54967934 26.4576811,4.18920517 C26.4576811,2.82712589 25.3499911,1.72354182 23.9835894,1.72354182 L16.8539823,1.72354182 L16.8539823,2.8193922 L23.9835894,2.8193922 C24.7440279,2.8193922 25.3597002,3.43278231 25.3597002,4.18920517 C25.3597002,4.94418448 24.7429846,5.55901815 23.9835894,5.55901815 L16.8539823,5.55901815 L16.8539823,6.65486853 L23.9835894,6.65486853 Z" id="Rectangle-10"></path>
                <path d="M14.92887,0.0797662486 L11.0859588,0.0797662486 C9.87315643,0.0797662486 8.88998582,1.06299134 8.88998582,2.2714781 L8.88998582,6.10693225 C8.88998582,7.31738128 9.87512252,8.2986441 11.0859588,8.2986441 L14.92887,8.2986441 C16.1416724,8.2986441 17.124843,7.31541901 17.124843,6.10693225 L17.124843,2.2714781 C17.124843,1.06102907 16.1397063,0.0797662486 14.92887,0.0797662486 Z M14.9288811,6.10693225 C14.9288811,6.10595704 11.0859588,6.10694334 11.0859588,6.10694334 C11.086936,6.10694334 11.0859477,2.2714781 11.0859477,2.2714781 C11.0859477,2.27245331 14.92887,2.27146701 14.92887,2.27146701 C14.9278929,2.27146701 14.9288811,6.10693225 14.9288811,6.10693225 Z" id="Rectangle-12"></path>
            </g>
            <g transform="translate(207.394422, 162.931034)" sketch:type="MSShapeGroup">
                <path d="M0.153717334,23.2170193 C0.153717334,23.822131 0.644742755,24.312671 1.25065595,24.312671 L3.44870255,24.312671 C4.05452502,24.312671 4.54564116,23.8231561 4.54564116,23.2170193 L4.54564116,17.1894448 C4.54564116,16.5843331 4.05461574,16.0937931 3.44870255,16.0937931 L1.25065595,16.0937931 C0.644833482,16.0937931 0.153717334,16.583308 0.153717334,17.1894448 L0.153717334,23.2170193 L0.153717334,23.2170193 Z M3.99665069,17.7375687 C3.99665069,17.1323473 3.50506787,16.6417183 2.89866973,16.6417183 C2.29227159,16.6417183 1.80068877,17.1323473 1.80068877,17.7375687 C1.80068877,18.3427902 2.29227159,18.8334191 2.89866973,18.8334191 C3.50506787,18.8334191 3.99665069,18.3427902 3.99665069,17.7375687 L3.99665069,17.7375687 Z" id="Rectangle-13"></path>
                <path d="M2.34969036,24.312671 L6.19260149,24.312671 C7.4054039,24.312671 8.38857452,23.3305328 8.38857452,22.1213921 L8.38857452,15.545446 C8.38857452,14.3352361 7.40343782,13.3541672 6.19260149,13.3541672 L2.34969036,13.3541672 C1.13688795,13.3541672 0.153717334,14.3363054 0.153717334,15.545446 L0.153717334,22.1213921 C0.153717334,23.331602 1.13885403,24.312671 2.34969036,24.312671 Z M1.44933486,15.545446 C1.44933486,15.050057 1.85284813,14.6472706 2.34969036,14.6472706 L6.19260149,14.6472706 C6.68880356,14.6472706 7.09295699,15.0503109 7.09295699,15.545446 L7.09295699,22.1213921 C7.09295699,22.6167811 6.68944372,23.0195675 6.19260149,23.0195675 L2.34969036,23.0195675 C1.85348829,23.0195675 1.44933486,22.6165273 1.44933486,22.1213921 L1.44933486,15.545446 Z" id="Rectangle-11"></path>
                <path d="M2.34969036,11.1624664 L6.19260149,11.1624664 C7.4054039,11.1624664 8.38857452,10.1803282 8.38857452,8.97118758 L8.38857452,2.39524146 C8.38857452,1.18503158 7.40343782,0.203962625 6.19260149,0.203962625 L2.34969036,0.203962625 C1.13688795,0.203962625 0.153717334,1.1861008 0.153717334,2.39524146 L0.153717334,8.97118758 C0.153717334,10.1813975 1.13885403,11.1624664 2.34969036,11.1624664 Z M1.44933486,2.39524146 C1.44933486,1.89985249 1.85284813,1.49706607 2.34969036,1.49706607 L6.19260149,1.49706607 C6.68880356,1.49706607 7.09295699,1.90010632 7.09295699,2.39524146 L7.09295699,8.97118758 C7.09295699,9.46657656 6.68944372,9.86936298 6.19260149,9.86936298 L2.34969036,9.86936298 C1.85348829,9.86936298 1.44933486,9.46632273 1.44933486,8.97118758 L1.44933486,2.39524146 Z" id="Rectangle-11"></path>
                <path d="M0.153717334,22.1209702 L0.153717334,22.6688954 L1.25169829,22.6688954 L1.25169829,22.1209702 L1.25169829,2.94358857 L1.25169829,2.39566338 L0.153717334,2.39566338 L0.153717334,2.94358857 L0.153717334,22.1209702 Z" id="Line"></path>
            </g>
        </g>
    </g>
</svg>