<?xml version="1.0" encoding="UTF-8" standalone="no"?>
<svg width="112px" height="161px" viewBox="0 0 112 161" version="1.1" xmlns="http://www.w3.org/2000/svg" xmlns:xlink="http://www.w3.org/1999/xlink" xmlns:sketch="http://www.bohemiancoding.com/sketch/ns">
    <!-- Generator: Sketch 3.2.2 (9983) - http://www.bohemiancoding.com/sketch -->
    <title>Little_mermaid</title>
    <desc>Created with Sketch.</desc>
    <defs></defs>
    <g id="Page-1" stroke="none" stroke-width="1" fill="none" fill-rule="evenodd" sketch:type="MSPage">
        <g id="Little_mermaid" sketch:type="MSLayerGroup">
            <path d="M48.3754407,74.0182371 C48.3754407,78.3156503 51.8591825,81.7993921 56.1565957,81.7993921 C60.454009,81.7993921 63.5241231,77.5750222 63.5241231,73.2776089" id="Oval-1" stroke="#EC212C" stroke-width="2.3343465" stroke-linecap="round" stroke-linejoin="round" sketch:type="MSShapeGroup"></path>
            <path d="M26.5882067,69.9331307 C26.5882067,74.4454146 30.2461355,78.1033435 34.7584195,78.1033435 C39.2707034,78.1033435 42.9286322,74.4454146 42.9286322,69.9331307" id="Oval-1" stroke="#EC212C" stroke-width="2.3343465" stroke-linecap="round" stroke-linejoin="round" sketch:type="MSShapeGroup"></path>
            <path d="M27.966508,43.9239935 C24.3742674,43.9239935 20.7820267,47.3290119 20.7820267,47.3290119 M15.3055319,86.2735562 L30.9414843,59.5621376 L15.3055319,86.2735562 Z M28.0957177,43.8732214 L41.761459,41.9209726 L28.0957177,43.8732214 M15.3055319,86.2735562 L13.7493009,103.392097 L15.3055319,86.2735562" id="Oval-1" stroke="#EC212C" stroke-width="2.3343465" stroke-linecap="round" stroke-linejoin="round" sketch:type="MSShapeGroup"></path>
            <g id="Ipad" transform="translate(22.220583, 118.524271) rotate(-2.000000) translate(-22.220583, -118.524271) translate(2.792012, 96.809986)" sketch:type="MSShapeGroup">
                <path d="M30.2998176,17.0565581 L30.2998176,6.26104067 C30.2998176,4.96937594 29.2567003,3.92227478 27.9699205,3.92227478 L10.0643652,3.92227478 C8.77759857,3.92227478 7.73446809,4.96561669 7.73446809,6.26205323 L7.73446809,35.8195784 C7.73446809,37.1118024 8.77758537,38.1593568 10.0643652,38.1593568 L27.9699205,38.1593568 C29.2566871,38.1593568 30.2998176,37.1180207 30.2998176,35.8265263 L30.2998176,29.5517687" id="Rectangle-1" stroke="#EC212C" stroke-width="2.3343465" stroke-linecap="round" stroke-linejoin="round" transform="translate(19.017143, 21.040816) rotate(-30.000000) translate(-19.017143, -21.040816) "></path>
                <ellipse id="Oval-10" fill="#EC212C" cx="24.8530091" cy="31.0779331" rx="1.556231" ry="1.556231"></ellipse>
            </g>
            <path d="M73.6609235,97.1123758 C73.6609235,100.765177 66.5805871,104.127926 63.2731465,105.309987 L40.205228,113.507599 M71.3249864,53.6481402 C72.738864,55.1169836 73.701074,59.99314 73.701074,62.1929075 M56.5080103,45.0035071 L71.2298988,53.5824127 M73.6641945,61.3738602 L73.6641945,97.1671733 L73.6641945,61.3738602 M65.104924,91.7203647 L34.7584195,105.726444 L65.104924,91.7203647 M34.7584195,105.726444 L26.1991489,112.729483 L34.7584195,105.726444 M30.8795344,121.246374 L26.1991489,112.729483 L30.8795344,121.246374 Z M30.8678419,121.288754 L40.205228,113.507599 L30.8678419,121.288754" id="Oval-1" stroke="#EC212C" stroke-width="2.3343465" stroke-linecap="round" stroke-linejoin="round" sketch:type="MSShapeGroup"></path>
            <path d="M110.526647,159.516507 C107.230382,142.373634 94.9326889,128.43307 78.7446328,122.805882" id="Oval-1" stroke="#EC212C" stroke-width="2.3343465" stroke-linecap="round" stroke-linejoin="round" sketch:type="MSShapeGroup"></path>
            <path d="M42.1505167,132.147002 C42.1505167,132.147002 39.280819,130.597802 36.1516,128.225812 M63.1596353,131.015198 C63.1596353,136.797172 57.8186962,140.918981 52.876671,140.918981 M56.6115518,122.101546 L44.873921,111.915999 L56.6115518,122.101546 C60.4059801,123.287691 63.1596353,126.829869 63.1596353,131.015198" id="Oval-1" stroke="#EC212C" stroke-width="2.3343465" stroke-linecap="round" stroke-linejoin="round" sketch:type="MSShapeGroup"></path>
            <path d="M110.638255,159.681802 C101.993423,146.197675 87.7581622,138.796353 70.5517325,138.796353 C64.4059692,138.796353 59.5529118,139.510849 54.139595,141.590915" id="Oval-1" stroke="#EC212C" stroke-width="2.3343465" stroke-linecap="round" stroke-linejoin="round" sketch:type="MSShapeGroup"></path>
            <path d="M53.484351,141.782468 C48.4635016,136.025775 42.4656977,131.661557 35.6117323,128.855629 M13.7133583,125.233472 C9.53495832,125.424753 5.48779373,126.119164 1.63103446,127.257536" id="Oval-1" stroke="#EC212C" stroke-width="2.3343465" stroke-linecap="round" stroke-linejoin="round" sketch:type="MSShapeGroup"></path>
            <path d="M77.9921891,125.560587 L76.9962073,113.608805 L77.9921891,125.560587 C78.6146793,126.66459 78.9665191,127.919392 78.9665191,129.25005 C78.9665191,130.145713 78.8071143,131.007008 78.5130637,131.811083 M77.0178794,113.627506 C77.0178794,109.464865 74.507216,103.200834 70.7712833,101.937073" id="Oval-1" stroke="#EC212C" stroke-width="2.3343465" stroke-linecap="round" stroke-linejoin="round" sketch:type="MSShapeGroup"></path>
            <path d="M4.02285714,84.7173252 C4.02285714,83.2754729 4.54574919,81.9557485 5.41224944,80.937436 L20.769256,47.3677812 M6.34851933,125.957447 L5.37969605,111.547112 M5.34691233,108.249628 L4.01417282,84.6875814" id="Oval-1" stroke="#EC212C" stroke-width="2.3343465" stroke-linecap="round" stroke-linejoin="round" sketch:type="MSShapeGroup"></path>
            <path d="M63.548693,66.8206687 L63.548693,73.0455927" id="Line" stroke="#EC212C" stroke-width="2.3343465" stroke-linecap="round" stroke-linejoin="round" sketch:type="MSShapeGroup"></path>
            <path d="M61.2143465,80.0486322 L61.2143465,92.4984802" id="Line" stroke="#EC212C" stroke-width="2.3343465" stroke-linecap="round" stroke-linejoin="round" sketch:type="MSShapeGroup"></path>
            <path d="M22.2732025,74.6283504 L28.6396021,94.5764023 L22.2732025,74.6283504 Z M28.6396021,94.5764023 L28.6396021,110.36861 L28.6396021,94.5764023 Z" id="Line" stroke="#EC212C" stroke-width="2.3343465" stroke-linecap="round" stroke-linejoin="round" sketch:type="MSShapeGroup"></path>
            <circle id="Oval-20" fill="#EC212C" sketch:type="MSShapeGroup" cx="44.4848632" cy="90.5531915" r="1.556231"></circle>
            <path d="M56.5456535,45.0334347 L56.5456535,36.4741641" id="Line" stroke="#EC212C" stroke-width="2.3343465" stroke-linecap="round" stroke-linejoin="round" sketch:type="MSShapeGroup"></path>
            <path d="M40.9833435,38.0303951 L40.9833435,41.1428571" id="Line" stroke="#EC212C" stroke-width="2.3343465" stroke-linecap="round" stroke-linejoin="round" sketch:type="MSShapeGroup"></path>
            <path d="M52.2346137,117.52863 L57.1109113,112.288097" id="Line" stroke="#EC212C" stroke-width="2.3343465" stroke-linecap="round" stroke-linejoin="round" sketch:type="MSShapeGroup"></path>
            <path d="M57.9403584,27.4404721 C60.2259117,24.7317782 61.6034043,21.2319216 61.6034043,17.4103343 C61.6034043,8.81550785 54.6359207,1.84802432 46.0410942,1.84802432 C37.4462677,1.84802432 30.4787842,8.81550785 30.4787842,17.4103343 C30.4787842,19.4883244 30.88606,21.47119 31.6251421,23.2834617" id="Oval-1" stroke="#EC212C" stroke-width="2.3343465" stroke-linecap="round" sketch:type="MSShapeGroup"></path>
            <path d="M56.7090255,44.605654 C62.4997551,44.127277 67.0502128,39.2758977 67.0502128,33.3617021 C67.0502128,28.8311177 64.3798383,24.9242327 60.5271753,23.129133" id="Oval-1" stroke="#EC212C" stroke-width="2.3343465" stroke-linecap="round" stroke-linejoin="round" sketch:type="MSShapeGroup"></path>
            <path d="M38.767176,10.5844378 C34.80236,12.3339796 32.0350152,16.2997428 32.0350152,20.9118541 C32.0350152,25.3272072 34.5712801,29.150184 38.2664047,31.0033793 C38.4585904,36.4209128 42.9110156,40.7537994 48.3754407,40.7537994 C53.962078,40.7537994 58.4909422,36.2249351 58.4909422,30.6382979 C58.4909422,27.3443752 56.916542,24.4181734 54.4792085,22.5711597 L54.4792085,22.5711597 C54.5590239,22.0296244 54.6003647,21.4755671 54.6003647,20.9118541 C54.6003647,19.0224395 54.1359369,17.2414979 53.3150125,15.6769604 C51.9231154,16.2911584 50.3836364,16.6322188 48.7644985,16.6322188 C44.4226639,16.6322188 40.6536429,14.1797118 38.767176,10.5844378 Z" id="Oval-1" stroke="#EC212C" stroke-width="2.3343465" stroke-linecap="round" stroke-linejoin="round" sketch:type="MSShapeGroup"></path>
            <path d="M63.1596353,132.571429 C63.1596353,135.579618 65.5982545,138.018237 68.6064438,138.018237" id="Oval-9" stroke="#EC212C" stroke-width="2.3343465" stroke-linecap="round" stroke-linejoin="round" sketch:type="MSShapeGroup"></path>
            <path d="M37.8708815,32.9726444 C37.7251676,32.9726444 37.5803447,32.9764589 37.4365072,32.9839936 C33.1261633,33.2097841 29.7006687,36.7762871 29.7006687,41.1428571 C29.7006687,41.9355326 29.8135529,42.7018426 30.0241226,43.4265882" id="Oval-5" stroke="#EC212C" stroke-width="2.3343465" stroke-linecap="round" stroke-linejoin="round" sketch:type="MSShapeGroup"></path>
            <path d="M36.3146505,22.4680851 L37.8708815,22.4680851" id="Line" stroke="#EC212C" stroke-width="2.3343465" stroke-linecap="round" stroke-linejoin="round" sketch:type="MSShapeGroup"></path>
            <path d="M37.9178613,22.5602677 L44.077814,32.6081183 C44.077814,32.6081183 46.910785,33.772699 48.3754407,31.9387295" id="Line" stroke="#EC212C" stroke-width="2.3343465" stroke-linecap="round" stroke-linejoin="round" sketch:type="MSShapeGroup"></path>
            <path d="M44.0958055,21.6899696 L45.8465653,21.6899696" id="Line" stroke="#EC212C" stroke-width="2.3343465" stroke-linecap="round" stroke-linejoin="round" sketch:type="MSShapeGroup"></path>
        </g>
    </g>
</svg>