<?xml version="1.0" encoding="UTF-8" standalone="no"?>
<svg width="49px" height="71px" viewBox="0 0 49 71" version="1.1" xmlns="http://www.w3.org/2000/svg" xmlns:xlink="http://www.w3.org/1999/xlink" xmlns:sketch="http://www.bohemiancoding.com/sketch/ns">
    <!-- Generator: Sketch 3.2.2 (9983) - http://www.bohemiancoding.com/sketch -->
    <title>Little_mermaid</title>
    <desc>Created with Sketch.</desc>
    <defs></defs>
    <g id="Page-1" stroke="none" stroke-width="1" fill="none" fill-rule="evenodd" sketch:type="MSPage">
        <g id="Little_mermaid" sketch:type="MSLayerGroup">
            <path d="M21.1642553,32.3829787 C21.1642553,34.263097 22.6883923,35.787234 24.5685106,35.787234 C26.4486289,35.787234 27.7918039,33.9390722 27.7918039,32.0589539" id="Oval-1" stroke="#EC212C" stroke-width="1.0212766" stroke-linecap="round" stroke-linejoin="round" sketch:type="MSShapeGroup"></path>
            <path d="M11.6323404,30.5957447 C11.6323404,32.5698689 13.2326843,34.1702128 15.2068085,34.1702128 C17.1809327,34.1702128 18.7812766,32.5698689 18.7812766,30.5957447" id="Oval-1" stroke="#EC212C" stroke-width="1.0212766" stroke-linecap="round" stroke-linejoin="round" sketch:type="MSShapeGroup"></path>
            <path d="M12.2353473,19.2167472 C10.663742,19.2167472 9.0921367,20.7064427 9.0921367,20.7064427 M6.69617021,37.7446809 L13.5368994,26.0584352 L6.69617021,37.7446809 Z M12.2918765,19.1945344 L18.2706383,18.3404255 L12.2918765,19.1945344 M6.69617021,37.7446809 L6.01531915,45.2340426 L6.69617021,37.7446809" id="Oval-1" stroke="#EC212C" stroke-width="1.0212766" stroke-linecap="round" stroke-linejoin="round" sketch:type="MSShapeGroup"></path>
            <g id="Ipad" transform="translate(9.721505, 51.854369) rotate(-2.000000) translate(-9.721505, -51.854369) translate(1.221505, 42.354369)" sketch:type="MSShapeGroup">
                <path d="M13.2561702,7.46224415 L13.2561702,2.73920529 C13.2561702,2.17410197 12.7998064,1.71599522 12.2368402,1.71599522 L4.40315979,1.71599522 C3.84019938,1.71599522 3.38382979,2.1724573 3.38382979,2.73964829 L3.38382979,15.6710655 C3.38382979,16.2364135 3.8401936,16.6947186 4.40315979,16.6947186 L12.2368402,16.6947186 C12.7998006,16.6947186 13.2561702,16.2391341 13.2561702,15.6741053 L13.2561702,12.9288988" id="Rectangle-1" stroke="#EC212C" stroke-width="1.0212766" stroke-linecap="round" stroke-linejoin="round" transform="translate(8.320000, 9.205357) rotate(-30.000000) translate(-8.320000, -9.205357) "></path>
                <ellipse id="Oval-10" fill="#EC212C" cx="10.8731915" cy="13.5965957" rx="0.680851064" ry="0.680851064"></ellipse>
            </g>
            <path d="M32.226654,42.4866644 C32.226654,44.084765 29.1290069,45.5559676 27.6820016,46.0731194 L17.5897872,49.6595745 M31.2046815,23.4710613 C31.823253,24.1136803 32.2442199,26.2469987 32.2442199,27.209397 M24.7222545,19.6890344 L31.1630807,23.4423055 M32.2280851,26.8510638 L32.2280851,42.5106383 L32.2280851,26.8510638 M28.4834043,40.1276596 L15.2068085,46.2553191 L28.4834043,40.1276596 M15.2068085,46.2553191 L11.4621277,49.3191489 L15.2068085,46.2553191 M13.5097963,53.0452884 L11.4621277,49.3191489 L13.5097963,53.0452884 Z M13.5046809,53.0638298 L17.5897872,49.6595745 L13.5046809,53.0638298" id="Oval-1" stroke="#EC212C" stroke-width="1.0212766" stroke-linecap="round" stroke-linejoin="round" sketch:type="MSShapeGroup"></path>
            <path d="M48.3554079,69.788472 C46.9132919,62.2884647 41.5330514,56.1894682 34.4507768,53.7275732" id="Oval-1" stroke="#EC212C" stroke-width="1.0212766" stroke-linecap="round" stroke-linejoin="round" sketch:type="MSShapeGroup"></path>
            <path d="M18.4408511,57.8143133 C18.4408511,57.8143133 17.1853583,57.1365384 15.816325,56.0987929 M27.6323404,57.3191489 C27.6323404,59.8487626 25.2956796,61.6520542 23.1335436,61.6520542 M24.7675539,53.4194265 L19.6323404,48.9632495 L24.7675539,53.4194265 C26.4276163,53.938365 27.6323404,55.4880677 27.6323404,57.3191489" id="Oval-1" stroke="#EC212C" stroke-width="1.0212766" stroke-linecap="round" stroke-linejoin="round" sketch:type="MSShapeGroup"></path>
            <path d="M48.4042366,69.8607885 C44.6221227,63.961483 38.394196,60.7234043 30.866383,60.7234043 C28.1776115,60.7234043 26.0543989,61.0359965 23.6860728,61.9460255" id="Oval-1" stroke="#EC212C" stroke-width="1.0212766" stroke-linecap="round" stroke-linejoin="round" sketch:type="MSShapeGroup"></path>
            <path d="M23.3994036,62.02983 C21.2027819,59.5112765 18.5787428,57.6019311 15.5801329,56.3743376 M5.99959426,54.7896442 C4.17154427,54.8733294 2.40090976,55.1771343 0.713577577,55.6751719" id="Oval-1" stroke="#EC212C" stroke-width="1.0212766" stroke-linecap="round" stroke-linejoin="round" sketch:type="MSShapeGroup"></path>
            <path d="M34.1215827,54.9327569 L33.6858407,49.7038524 L34.1215827,54.9327569 C34.3939222,55.4157582 34.5478521,55.9647341 34.5478521,56.5468968 C34.5478521,56.9387493 34.4781125,57.3155662 34.3494654,57.6673486 M33.6953222,49.712034 C33.6953222,47.8908785 32.596907,45.1503647 30.9624364,44.5974694" id="Oval-1" stroke="#EC212C" stroke-width="1.0212766" stroke-linecap="round" stroke-linejoin="round" sketch:type="MSShapeGroup"></path>
            <path d="M1.76,37.0638298 C1.76,36.4330194 1.98876527,35.85564 2.36785913,35.4101282 L9.08654949,20.7234043 M2.77747721,55.106383 L2.35361702,48.8018617 M2.33927415,47.3592121 L1.75620061,37.0508169" id="Oval-1" stroke="#EC212C" stroke-width="1.0212766" stroke-linecap="round" stroke-linejoin="round" sketch:type="MSShapeGroup"></path>
            <path d="M27.8025532,29.2340426 L27.8025532,31.9574468" id="Line" stroke="#EC212C" stroke-width="1.0212766" stroke-linecap="round" stroke-linejoin="round" sketch:type="MSShapeGroup"></path>
            <path d="M26.7812766,35.0212766 L26.7812766,40.4680851" id="Line" stroke="#EC212C" stroke-width="1.0212766" stroke-linecap="round" stroke-linejoin="round" sketch:type="MSShapeGroup"></path>
            <path d="M9.74452611,32.6499033 L12.5298259,41.377176 L9.74452611,32.6499033 Z M12.5298259,41.377176 L12.5298259,48.2862669 L12.5298259,41.377176 Z" id="Line" stroke="#EC212C" stroke-width="1.0212766" stroke-linecap="round" stroke-linejoin="round" sketch:type="MSShapeGroup"></path>
            <circle id="Oval-20" fill="#EC212C" sketch:type="MSShapeGroup" cx="19.4621277" cy="39.6170213" r="0.680851064"></circle>
            <path d="M24.7387234,19.7021277 L24.7387234,15.9574468" id="Line" stroke="#EC212C" stroke-width="1.0212766" stroke-linecap="round" stroke-linejoin="round" sketch:type="MSShapeGroup"></path>
            <path d="M17.9302128,16.6382979 L17.9302128,18" id="Line" stroke="#EC212C" stroke-width="1.0212766" stroke-linecap="round" stroke-linejoin="round" sketch:type="MSShapeGroup"></path>
            <path d="M22.8526435,51.4187755 L24.9860237,49.1260425" id="Line" stroke="#EC212C" stroke-width="1.0212766" stroke-linecap="round" stroke-linejoin="round" sketch:type="MSShapeGroup"></path>
            <path d="M25.3489068,12.0052066 C26.3488364,10.8201529 26.9514894,9.28896568 26.9514894,7.61702128 C26.9514894,3.85678468 23.9032153,0.808510638 20.1429787,0.808510638 C16.3827421,0.808510638 13.3344681,3.85678468 13.3344681,7.61702128 C13.3344681,8.52614191 13.5126513,9.39364563 13.8359997,10.1865145" id="Oval-1" stroke="#EC212C" stroke-width="1.0212766" stroke-linecap="round" sketch:type="MSShapeGroup"></path>
            <path d="M24.8101987,19.5149736 C27.3436428,19.3056837 29.3344681,17.1832053 29.3344681,14.5957447 C29.3344681,12.613614 28.1661793,10.9043518 26.4806392,10.1189957" id="Oval-1" stroke="#EC212C" stroke-width="1.0212766" stroke-linecap="round" stroke-linejoin="round" sketch:type="MSShapeGroup"></path>
            <path d="M16.9606395,4.63069154 C15.2260325,5.39611606 14.0153191,7.13113749 14.0153191,9.14893617 C14.0153191,11.0806532 15.124935,12.7532055 16.7415521,13.5639784 C16.8256333,15.9341494 18.7735693,17.8297872 21.1642553,17.8297872 C23.6084091,17.8297872 25.5897872,15.8484091 25.5897872,13.4042553 C25.5897872,11.9631642 24.9009871,10.6829509 23.8346537,9.87488236 L23.8346537,9.87488236 C23.8695729,9.63796069 23.8876596,9.39556061 23.8876596,9.14893617 C23.8876596,8.32231729 23.6844724,7.54315532 23.325318,6.85867016 C22.716363,7.12738178 22.0428409,7.27659574 21.3344681,7.27659574 C19.4349154,7.27659574 17.7859688,6.20362389 16.9606395,4.63069154 Z" id="Oval-1" stroke="#EC212C" stroke-width="1.0212766" stroke-linecap="round" stroke-linejoin="round" sketch:type="MSShapeGroup"></path>
            <path d="M27.6323404,58 C27.6323404,59.3160828 28.6992363,60.3829787 30.0153191,60.3829787" id="Oval-9" stroke="#EC212C" stroke-width="1.0212766" stroke-linecap="round" stroke-linejoin="round" sketch:type="MSShapeGroup"></path>
            <path d="M16.5685106,14.4255319 C16.5047608,14.4255319 16.4414008,14.4272008 16.3784719,14.4304972 C14.4926964,14.5292806 12.9940426,16.0896256 12.9940426,18 C12.9940426,18.3467955 13.0434294,18.6820561 13.1355536,18.9991323" id="Oval-5" stroke="#EC212C" stroke-width="1.0212766" stroke-linecap="round" stroke-linejoin="round" sketch:type="MSShapeGroup"></path>
            <path d="M15.8876596,9.82978723 L16.5685106,9.82978723" id="Line" stroke="#EC212C" stroke-width="1.0212766" stroke-linecap="round" stroke-linejoin="round" sketch:type="MSShapeGroup"></path>
            <path d="M16.5890643,9.87011711 L19.2840436,14.2660518 C19.2840436,14.2660518 20.5234685,14.7755558 21.1642553,13.9731941" id="Line" stroke="#EC212C" stroke-width="1.0212766" stroke-linecap="round" stroke-linejoin="round" sketch:type="MSShapeGroup"></path>
            <path d="M19.2919149,9.4893617 L20.0578723,9.4893617" id="Line" stroke="#EC212C" stroke-width="1.0212766" stroke-linecap="round" stroke-linejoin="round" sketch:type="MSShapeGroup"></path>
        </g>
    </g>
</svg>